<svg width="18" height="18" viewBox="0 0 18 18" fill="none" xmlns="http://www.w3.org/2000/svg">
<path d="M15 6.5249H3C2.85082 6.5249 2.70774 6.46564 2.60225 6.36015C2.49676 6.25466 2.4375 6.11159 2.4375 5.9624C2.4375 5.81322 2.49676 5.67014 2.60225 5.56466C2.70774 5.45917 2.85082 5.3999 3 5.3999H15C15.1492 5.3999 15.2923 5.45917 15.3977 5.56466C15.5032 5.67014 15.5625 5.81322 15.5625 5.9624C15.5625 6.11159 15.5032 6.25466 15.3977 6.36015C15.2923 6.46564 15.1492 6.5249 15 6.5249Z" fill="red"/>
<path d="M12.33 15.5625H5.67C5.43232 15.5787 5.19378 15.5476 4.9682 15.471C4.74262 15.3944 4.53451 15.2737 4.35591 15.1161C4.17731 14.9584 4.03179 14.7668 3.92778 14.5525C3.82377 14.3382 3.76334 14.1053 3.75 13.8675V5.99997C3.75 5.85079 3.80926 5.70771 3.91475 5.60223C4.02024 5.49674 4.16332 5.43747 4.3125 5.43747C4.46168 5.43747 4.60476 5.49674 4.71025 5.60223C4.81574 5.70771 4.875 5.85079 4.875 5.99997V13.8675C4.875 14.175 5.2275 14.4375 5.625 14.4375H12.285C12.705 14.4375 13.035 14.175 13.035 13.8675V5.99997C13.035 5.83885 13.099 5.68433 13.2129 5.57041C13.3269 5.45648 13.4814 5.39247 13.6425 5.39247C13.8036 5.39247 13.9581 5.45648 14.0721 5.57041C14.186 5.68433 14.25 5.83885 14.25 5.99997V13.8675C14.2367 14.1053 14.1762 14.3382 14.0722 14.5525C13.9682 14.7668 13.8227 14.9584 13.6441 15.1161C13.4655 15.2737 13.2574 15.3944 13.0318 15.471C12.8062 15.5476 12.5677 15.5787 12.33 15.5625ZM12.42 5.81247C12.3459 5.81348 12.2723 5.79962 12.2036 5.77171C12.1349 5.7438 12.0724 5.7024 12.02 5.64997C11.9676 5.59753 11.9262 5.53512 11.8983 5.46642C11.8704 5.39772 11.8565 5.32412 11.8575 5.24997V4.13247C11.8575 3.82497 11.4975 3.56247 11.1075 3.56247H6.915C6.5025 3.56247 6.165 3.82497 6.165 4.13247V5.24997C6.165 5.39916 6.10574 5.54223 6.00025 5.64772C5.89476 5.75321 5.75168 5.81247 5.6025 5.81247C5.45332 5.81247 5.31024 5.75321 5.20475 5.64772C5.09926 5.54223 5.04 5.39916 5.04 5.24997V4.13247C5.06904 3.66096 5.28153 3.21955 5.63197 2.90275C5.98241 2.58595 6.44295 2.41894 6.915 2.43747H11.085C11.5608 2.41286 12.0272 2.57714 12.3825 2.89456C12.7378 3.21199 12.9535 3.65688 12.9825 4.13247V5.24997C12.9835 5.32447 12.9697 5.39842 12.9419 5.46754C12.914 5.53665 12.8728 5.59955 12.8204 5.65258C12.7681 5.70561 12.7057 5.74771 12.637 5.77645C12.5683 5.80519 12.4945 5.81998 12.42 5.81997V5.81247Z" fill="red"/>
<path d="M7.66504 12.75C7.51646 12.7481 7.37451 12.6882 7.26944 12.5831C7.16437 12.4781 7.10448 12.3361 7.10254 12.1875V8.79004C7.10254 8.64085 7.1618 8.49778 7.26729 8.39229C7.37278 8.2868 7.51585 8.22754 7.66504 8.22754C7.81422 8.22754 7.9573 8.2868 8.06279 8.39229C8.16828 8.49778 8.22754 8.64085 8.22754 8.79004V12.18C8.22853 12.2545 8.21472 12.3285 8.18689 12.3976C8.15907 12.4667 8.11779 12.5296 8.06546 12.5826C8.01313 12.6357 7.95078 12.6778 7.88204 12.7065C7.81331 12.7353 7.73954 12.75 7.66504 12.75ZM10.335 12.75C10.1859 12.75 10.0428 12.6908 9.93729 12.5853C9.8318 12.4798 9.77254 12.3367 9.77254 12.1875V8.79004C9.77254 8.64085 9.8318 8.49778 9.93729 8.39229C10.0428 8.2868 10.1859 8.22754 10.335 8.22754C10.4842 8.22754 10.6273 8.2868 10.7328 8.39229C10.8383 8.49778 10.8975 8.64085 10.8975 8.79004V12.18C10.8976 12.3299 10.8385 12.4738 10.7333 12.5805C10.628 12.6871 10.4849 12.7481 10.335 12.75Z" fill="red"/>
</svg>
